<?xml version="1.0" encoding="UTF-8"?>
<svg version="1.1" xmlns="http://www.w3.org/2000/svg" width="194" height="62">
<path d="M0 0 C0.70954834 0.00427002 1.41909668 0.00854004 2.15014648 0.01293945 C4.203125 0.15234375 4.203125 0.15234375 7.75 1.0625 C9.72348852 3.49051245 10.75 4.91380915 10.75 8.0625 C6.13 8.0625 1.51 8.0625 -3.25 8.0625 C-3.58 9.3825 -3.91 10.7025 -4.25 12.0625 C1.69 12.0625 7.63 12.0625 13.75 12.0625 C13.75 16.43214969 13.07021893 17.65358655 10.8125 21.25 C10.26722656 22.13042969 9.72195312 23.01085937 9.16015625 23.91796875 C7.75 26.0625 7.75 26.0625 6.75 27.0625 C-5.46402278 28.31076365 -5.46402278 28.31076365 -9.06640625 25.79296875 C-10.5059369 23.60976913 -11.25 21.68884726 -11.25 19.0625 C-10.26 18.7325 -9.27 18.4025 -8.25 18.0625 C-8.25 17.4025 -8.25 16.7425 -8.25 16.0625 C-10.23 16.0625 -12.21 16.0625 -14.25 16.0625 C-15.58991981 12.04274056 -14.62201199 10.65196143 -12.8125 6.875 C-9.32982902 1.01616857 -6.48395579 -0.05592748 0 0 Z M-4.25 16.0625 C-3.92 17.0525 -3.59 18.0425 -3.25 19.0625 C0.38 19.0625 4.01 19.0625 7.75 19.0625 C8.08 18.0725 8.41 17.0825 8.75 16.0625 C4.46 16.0625 0.17 16.0625 -4.25 16.0625 Z " fill="#A6191E" transform="translate(33.25,17.9375)"/>
<path d="M0 0 C2.31 0 4.62 0 7 0 C8.33858524 2.28874173 9.67101014 4.58069656 11 6.875 C11.3815625 7.52597656 11.763125 8.17695313 12.15625 8.84765625 C15 13.7734375 15 13.7734375 15 16 C15.66 16 16.32 16 17 16 C17 17.32 17 18.64 17 20 C16.34 20 15.68 20 15 20 C14.73316406 20.71671875 14.46632813 21.4334375 14.19140625 22.171875 C12.98119507 25.04463859 11.55833748 27.58975569 9.9375 30.25 C9.41027344 31.12140625 8.88304687 31.9928125 8.33984375 32.890625 C7 35 7 35 6 36 C4.33382885 36.04063832 2.66611905 36.042721 1 36 C0.67 35.34 0.34 34.68 0 34 C1 32 1 32 4 31 C5.99580808 28.44347412 5.99580808 28.44347412 7.8125 25.3125 C8.45832031 24.27738281 9.10414062 23.24226563 9.76953125 22.17578125 C11.30849412 19.05784038 11.30849412 19.05784038 10.34765625 15.86328125 C7.66876901 10.17161648 4.64499486 5.30092117 0 1 C0 0.67 0 0.34 0 0 Z " fill="#191414" transform="translate(37,14)"/>
<path d="M0 0 C0.90363281 0.13019531 1.80726562 0.26039062 2.73828125 0.39453125 C1.72491524 2.75905195 0.85705713 4.28804253 -1.07421875 6.01953125 C-4.55397906 9.79755673 -7.35170073 13.23548173 -8.26171875 18.39453125 C-6.68087865 23.27286256 -4.4119291 27.31525496 -1.26171875 31.39453125 C-0.27171875 31.72453125 0.71828125 32.05453125 1.73828125 32.39453125 C2.42578125 34.45703125 2.42578125 34.45703125 2.73828125 36.39453125 C0.03515625 36.859375 0.03515625 36.859375 -3.26171875 36.39453125 C-5.33059506 34.19345096 -6.62382868 31.62400469 -8.01171875 28.95703125 C-10.33771399 23.91606576 -10.33771399 23.91606576 -14.26171875 20.39453125 C-14.26171875 16.39453125 -14.26171875 16.39453125 -13 15.0625 C-12.42636719 14.51207031 -11.85273438 13.96164063 -11.26171875 13.39453125 C-9.61647155 10.57761546 -8.00016031 7.75862559 -6.48632812 4.86914062 C-4.57548738 1.53173901 -3.92216058 0.47441703 0 0 Z " fill="#1D1212" transform="translate(26.26171875,13.60546875)"/>
<path d="M0 0 C0.70954834 0.00427002 1.41909668 0.00854004 2.15014648 0.01293945 C4.203125 0.15234375 4.203125 0.15234375 7.75 1.0625 C9.72348852 3.49051245 10.75 4.91380915 10.75 8.0625 C6.13 8.0625 1.51 8.0625 -3.25 8.0625 C-3.91 9.3825 -4.57 10.7025 -5.25 12.0625 C-7.56 11.7325 -9.87 11.4025 -12.25 11.0625 C-12.25 12.3825 -12.25 13.7025 -12.25 15.0625 C-11.26 15.3925 -10.27 15.7225 -9.25 16.0625 C-10.9 16.0625 -12.55 16.0625 -14.25 16.0625 C-15.58991981 12.04274056 -14.62201199 10.65196143 -12.8125 6.875 C-9.32982902 1.01616857 -6.48395579 -0.05592748 0 0 Z " fill="#91101A" transform="translate(33.25,17.9375)"/>
<path d="M0 0 C2.53125 -0.36328125 2.53125 -0.36328125 5.5 -0.3125 C6.4796875 -0.30863281 7.459375 -0.30476562 8.46875 -0.30078125 C11 0 11 0 13 2 C13 3.32 13 4.64 13 6 C12.01 6 11.02 6 10 6 C10 5.01 10 4.02 10 3 C7.36 3.33 4.72 3.66 2 4 C2 4.99 2 5.98 2 7 C2.62648438 7.04898437 3.25296875 7.09796875 3.8984375 7.1484375 C4.71570313 7.22320313 5.53296875 7.29796875 6.375 7.375 C7.59316406 7.47941406 7.59316406 7.47941406 8.8359375 7.5859375 C11 8 11 8 13 10 C13.25 13.5 13.25 13.5 13 17 C11 19 11 19 8.46875 19.265625 C7.4890625 19.26046875 6.509375 19.2553125 5.5 19.25 C4.5203125 19.25515625 3.540625 19.2603125 2.53125 19.265625 C0 19 0 19 -2 17 C-2.125 14.375 -2.125 14.375 -2 12 C-1.01 12 -0.02 12 1 12 C1 13.32 1 14.64 1 16 C3.97 16 6.94 16 10 16 C10 14.35 10 12.7 10 11 C8.9275 11.04125 7.855 11.0825 6.75 11.125 C1.29652997 10.94321767 1.29652997 10.94321767 -1 9 C-1.875 6.0625 -1.875 6.0625 -2 3 C-1.34 2.01 -0.68 1.02 0 0 Z " fill="#121313" transform="translate(69,15)"/>
<path d="M0 0 C0.9796875 0.00515625 1.959375 0.0103125 2.96875 0.015625 C3.9484375 0.01046875 4.928125 0.0053125 5.9375 0 C8.46875 0.265625 8.46875 0.265625 10.46875 2.265625 C10.09375 4.890625 10.09375 4.890625 9.46875 7.265625 C8.80875 6.935625 8.14875 6.605625 7.46875 6.265625 C7.46875 5.275625 7.46875 4.285625 7.46875 3.265625 C4.49875 3.265625 1.52875 3.265625 -1.53125 3.265625 C-1.20125 7.225625 -0.87125 11.185625 -0.53125 15.265625 C2.10875 15.595625 4.74875 15.925625 7.46875 16.265625 C7.46875 14.945625 7.46875 13.625625 7.46875 12.265625 C8.45875 12.265625 9.44875 12.265625 10.46875 12.265625 C10.59375 14.640625 10.59375 14.640625 10.46875 17.265625 C7.95862037 19.77575463 7.00069763 19.56284109 3.53125 19.578125 C2.21833984 19.60326172 2.21833984 19.60326172 0.87890625 19.62890625 C-1.53125 19.265625 -1.53125 19.265625 -3.328125 18.1875 C-5.17785083 15.23274316 -4.89003815 12.64625109 -4.84375 9.203125 C-4.83988281 7.95402344 -4.83601563 6.70492188 -4.83203125 5.41796875 C-4.46344258 1.55496798 -3.94571401 0.41405641 0 0 Z " fill="#0D0C0D" transform="translate(129.53125,14.734375)"/>
<path d="M0 0 C0.99 0 1.98 0 3 0 C3 6.27 3 12.54 3 19 C1.39125 19.04125 -0.2175 19.0825 -1.875 19.125 C-2.77992188 19.14820312 -3.68484375 19.17140625 -4.6171875 19.1953125 C-7 19 -7 19 -9 17 C-9.265625 14.6875 -9.265625 14.6875 -9.25 12 C-9.25515625 11.113125 -9.2603125 10.22625 -9.265625 9.3125 C-9 7 -9 7 -7 5 C-3.875 4.875 -3.875 4.875 -1 5 C-0.67 3.35 -0.34 1.7 0 0 Z M-6 8 C-6 10.64 -6 13.28 -6 16 C-4.33388095 16.042721 -2.66617115 16.04063832 -1 16 C0.34404775 14.88163776 0.34404775 14.88163776 0.125 12 C0.34404775 9.11836224 0.34404775 9.11836224 -1 8 C-2.66617115 7.95936168 -4.33388095 7.957279 -6 8 Z " fill="#151414" transform="translate(165,15)"/>
<path d="M0 0 C0.70125 0.00515625 1.4025 0.0103125 2.125 0.015625 C2.82625 0.01046875 3.5275 0.0053125 4.25 0 C6.125 0.265625 6.125 0.265625 8.125 2.265625 C8.25 5.390625 8.25 5.390625 8.125 8.265625 C5.155 8.265625 2.185 8.265625 -0.875 8.265625 C-0.875 9.255625 -0.875 10.245625 -0.875 11.265625 C1.105 11.265625 3.085 11.265625 5.125 11.265625 C5.125 10.605625 5.125 9.945625 5.125 9.265625 C6.115 9.265625 7.105 9.265625 8.125 9.265625 C7.25 13.140625 7.25 13.140625 6.125 14.265625 C0.38888889 14.53877315 0.38888889 14.53877315 -1.875 14.265625 C-3.875 12.265625 -3.875 12.265625 -4.140625 9.953125 C-4.13546875 9.06625 -4.1303125 8.179375 -4.125 7.265625 C-4.13015625 6.37875 -4.1353125 5.491875 -4.140625 4.578125 C-3.80306577 1.63937407 -3.01925908 0.42772837 0 0 Z M-0.875 3.265625 C-0.875 3.925625 -0.875 4.585625 -0.875 5.265625 C1.105 5.265625 3.085 5.265625 5.125 5.265625 C5.125 4.605625 5.125 3.945625 5.125 3.265625 C3.145 3.265625 1.165 3.265625 -0.875 3.265625 Z " fill="#151515" transform="translate(102.875,19.734375)"/>
<path d="M0 0 C2 2 2 2 2.125 5.125 C2.08375 6.07375 2.0425 7.0225 2 8 C-0.97 8 -3.94 8 -7 8 C-7 8.99 -7 9.98 -7 11 C-4.03 10.34 -1.06 9.68 2 9 C2 10.32 2 11.64 2 13 C-0.21295616 14.10647808 -1.54672699 14.19588368 -4 14.25 C-5.051875 14.28867187 -5.051875 14.28867187 -6.125 14.328125 C-6.74375 14.21984375 -7.3625 14.1115625 -8 14 C-10.54393252 10.18410122 -10.57737956 7.4700353 -10 3 C-7.8297183 -1.08523614 -4.19706062 -0.38155097 0 0 Z M-7 3 C-7 3.66 -7 4.32 -7 5 C-5.02 5 -3.04 5 -1 5 C-1 4.34 -1 3.68 -1 3 C-2.98 3 -4.96 3 -7 3 Z " fill="#141416" transform="translate(180,20)"/>
<path d="M0 0 C0.83144531 0.08378906 1.66289062 0.16757812 2.51953125 0.25390625 C4.14955078 0.40666016 4.14955078 0.40666016 5.8125 0.5625 C6.89144531 0.66691406 7.97039063 0.77132812 9.08203125 0.87890625 C12.06482454 1.17577609 12.06482454 1.17577609 15 0 C13.125 6.875 13.125 6.875 12 8 C9.69006618 8.12557162 7.37581464 8.17575729 5.0625 8.1875 C3.79535156 8.20167969 2.52820312 8.21585938 1.22265625 8.23046875 C-2 8 -2 8 -4 6 C-4 4.68 -4 3.36 -4 2 C-2.68 2 -1.36 2 0 2 C0 1.34 0 0.68 0 0 Z " fill="#B91619" transform="translate(28,37)"/>
<path d="M0 0 C0.99 0 1.98 0 3 0 C3.33 1.65 3.66 3.3 4 5 C6.31 5.33 8.62 5.66 11 6 C11.96070434 8.88211302 12.10581883 10.69850044 12.0625 13.6875 C12.05347656 14.49574219 12.04445313 15.30398437 12.03515625 16.13671875 C12.02355469 16.75160156 12.01195313 17.36648437 12 18 C11.01 18.33 10.02 18.66 9 19 C8.67 15.7 8.34 12.4 8 9 C6.68 9 5.36 9 4 9 C3.67 12.3 3.34 15.6 3 19 C2.01 19 1.02 19 0 19 C0 12.73 0 6.46 0 0 Z " fill="#151515" transform="translate(85,15)"/>
<path d="M0 0 C3.5625 0.3125 3.5625 0.3125 5.5 1.3125 C7.1827561 4.48004089 7.10718716 7.8038658 6.5625 11.3125 C5.5725 12.7975 5.5725 12.7975 4.5625 14.3125 C2.6875 14.67578125 2.6875 14.67578125 0.5625 14.625 C-0.13875 14.62113281 -0.84 14.61726563 -1.5625 14.61328125 C-3.4375 14.3125 -3.4375 14.3125 -5.4375 12.3125 C-5.703125 10 -5.703125 10 -5.6875 7.3125 C-5.69265625 6.425625 -5.6978125 5.53875 -5.703125 4.625 C-5.24547012 0.64071049 -3.8414655 0.34922414 0 0 Z M-2.4375 3.3125 C-2.4375 5.9525 -2.4375 8.5925 -2.4375 11.3125 C-0.4575 11.3125 1.5225 11.3125 3.5625 11.3125 C3.5625 8.6725 3.5625 6.0325 3.5625 3.3125 C1.5825 3.3125 -0.3975 3.3125 -2.4375 3.3125 Z " fill="#141314" transform="translate(147.4375,19.6875)"/>
<path d="M0 0 C5.28 0 10.56 0 16 0 C16.99 1.98 17.98 3.96 19 6 C15.125 4.125 15.125 4.125 14 3 C12.14712498 2.92773498 10.29166122 2.9161878 8.4375 2.9375 C7.42558594 2.94652344 6.41367187 2.95554687 5.37109375 2.96484375 C4.58863281 2.97644531 3.80617188 2.98804688 3 3 C2.34 4.32 1.68 5.64 1 7 C-0.32 7 -1.64 7 -3 7 C-1.125 2.25 -1.125 2.25 0 0 Z " fill="#721821" transform="translate(25,19)"/>
<path d="M0 0 C0.99 0 1.98 0 3 0 C3 6.27 3 12.54 3 19 C2.01 18.67 1.02 18.34 0 18 C0 12.06 0 6.12 0 0 Z " fill="#0A0B0F" transform="translate(119,15)"/>
<path d="M0 0 C0.99 0 1.98 0 3 0 C3 6.27 3 12.54 3 19 C2.01 18.67 1.02 18.34 0 18 C0 12.06 0 6.12 0 0 Z " fill="#100F14" transform="translate(113,15)"/>
<path d="M0 0 C2.0625 2.3125 2.0625 2.3125 4 5 C3.67 5.99 3.34 6.98 3 8 C5.97 7.34 8.94 6.68 12 6 C12 7.32 12 8.64 12 10 C9.78704384 11.10647808 8.45327301 11.19588368 6 11.25 C4.948125 11.28867187 4.948125 11.28867187 3.875 11.328125 C3.25625 11.21984375 2.6375 11.1115625 2 11 C-0.67927341 6.98108988 -0.15601248 4.75838077 0 0 Z " fill="#0B0C0C" transform="translate(170,23)"/>
<path d="M0 0 C0.33 0.66 0.66 1.32 1 2 C2.65 1.67 4.3 1.34 6 1 C6 1.66 6 2.32 6 3 C8.97 3 11.94 3 15 3 C15.33 3.66 15.66 4.32 16 5 C15.31292969 5.06058594 14.62585938 5.12117188 13.91796875 5.18359375 C12.56638672 5.30927734 12.56638672 5.30927734 11.1875 5.4375 C9.84751953 5.55931641 9.84751953 5.55931641 8.48046875 5.68359375 C5.87256441 5.93489767 5.87256441 5.93489767 3 7 C3 6.34 3 5.68 3 5 C1.35 5 -0.3 5 -2 5 C-2 3.68 -2 2.36 -2 1 C-1.34 0.67 -0.68 0.34 0 0 Z " fill="#B60B13" transform="translate(23,28)"/>
<path d="M0 0 C0.80050781 0.12761719 1.60101563 0.25523438 2.42578125 0.38671875 C3.23402344 0.50660156 4.04226562 0.62648437 4.875 0.75 C5.48988281 0.85699219 6.10476562 0.96398438 6.73828125 1.07421875 C6.40828125 2.72421875 6.07828125 4.37421875 5.73828125 6.07421875 C2.10828125 5.74421875 -1.52171875 5.41421875 -5.26171875 5.07421875 C-5.26171875 3.07421875 -5.26171875 3.07421875 -4.0546875 1.4296875 C-2.26171875 0.07421875 -2.26171875 0.07421875 0 0 Z " fill="#EA0708" transform="translate(31.26171875,37.92578125)"/>
<path d="M0 0 C2.4375 0.375 2.4375 0.375 5 1 C5.33 1.66 5.66 2.32 6 3 C7.77074917 3.02705729 9.54161711 3.04642195 11.3125 3.0625 C12.29863281 3.07410156 13.28476562 3.08570313 14.30078125 3.09765625 C17.09963849 3.12329862 17.09963849 3.12329862 20 2 C20 3.65 20 5.3 20 7 C19.01 7.495 19.01 7.495 18 8 C18 7.01 18 6.02 18 5 C15.93757383 4.97282308 13.87504297 4.9535242 11.8125 4.9375 C10.66394531 4.92589844 9.51539063 4.91429687 8.33203125 4.90234375 C5.38479964 4.98872217 2.82783048 5.17801637 0 6 C-0.33 6.66 -0.66 7.32 -1 8 C-1.33 6.68 -1.66 5.36 -2 4 C-1.01 3.67 -0.02 3.34 1 3 C0.67 2.01 0.34 1.02 0 0 Z " fill="#AF2020" transform="translate(24,33)"/>
<path d="M0 0 C2.31 0.33 4.62 0.66 7 1 C7.96070434 3.88211302 8.10581883 5.69850044 8.0625 8.6875 C8.05347656 9.49574219 8.04445313 10.30398437 8.03515625 11.13671875 C8.02355469 11.75160156 8.01195313 12.36648437 8 13 C7.01 13.33 6.02 13.66 5 14 C4.97421875 13.30132812 4.9484375 12.60265625 4.921875 11.8828125 C4.86515625 10.97273438 4.8084375 10.06265625 4.75 9.125 C4.70359375 8.22007813 4.6571875 7.31515625 4.609375 6.3828125 C4.24388852 3.82889456 4.24388852 3.82889456 1.953125 2.6796875 C1.30859375 2.45539062 0.6640625 2.23109375 0 2 C0 1.34 0 0.68 0 0 Z " fill="#0E0D0E" transform="translate(89,20)"/>
<path d="M0 0 C2.62386487 3.06117568 3 3.73173127 3 8 C4.98 8 6.96 8 9 8 C9 7.34 9 6.68 9 6 C9.99 6 10.98 6 12 6 C11.125 9.875 11.125 9.875 10 11 C4.26388889 11.27314815 4.26388889 11.27314815 2 11 C0 9 0 9 -0.1953125 6.8359375 C-0.17210938 6.02382813 -0.14890625 5.21171875 -0.125 4.375 C-0.10695313 3.55773437 -0.08890625 2.74046875 -0.0703125 1.8984375 C-0.04710938 1.27195312 -0.02390625 0.64546875 0 0 Z " fill="#0D0C0C" transform="translate(99,23)"/>
<path d="M0 0 C1.98 0 3.96 0 6 0 C6 2.64 6 5.28 6 8 C4.02 8 2.04 8 0 8 C0 5.36 0 2.72 0 0 Z " fill="#D35350" transform="translate(149,39)"/>
<path d="M0 0 C3.3125 -0.3125 3.3125 -0.3125 7 0 C9.77189158 3.21897087 10 4.6935573 10 9 C9.01 9.33 8.02 9.66 7 10 C6.38125 8.88625 6.38125 8.88625 5.75 7.75 C4.06284975 5.0987639 2.24904507 3.17149179 0 1 C0 0.67 0 0.34 0 0 Z " fill="#1E1A1A" transform="translate(37,14)"/>
<path d="M0 0 C-0.66 1.32 -1.32 2.64 -2 4 C-4.31 3.67 -6.62 3.34 -9 3 C-9 4.32 -9 5.64 -9 7 C-8.01 7.33 -7.02 7.66 -6 8 C-7.65 8 -9.3 8 -11 8 C-12 5 -12 5 -10.9375 2.375 C-9 0 -9 0 -6 -0.875 C-3 -1 -3 -1 0 0 Z " fill="#98121D" transform="translate(30,26)"/>
<path d="M0 0 C1.79133978 -0.05391993 3.58313899 -0.09275571 5.375 -0.125 C6.37273437 -0.14820313 7.37046875 -0.17140625 8.3984375 -0.1953125 C11 0 11 0 13 2 C12.625 4.625 12.625 4.625 12 7 C11.34 6.67 10.68 6.34 10 6 C10 5.01 10 4.02 10 3 C7.03 3 4.06 3 1 3 C0.67 2.01 0.34 1.02 0 0 Z " fill="#050505" transform="translate(127,15)"/>
<path d="M0 0 C1.65 0.33 3.3 0.66 5 1 C5.04254356 2.99954746 5.04080783 5.00041636 5 7 C4 8 4 8 1.4375 8.0625 C0.633125 8.041875 -0.17125 8.02125 -1 8 C-1 4.88742431 -0.82638376 2.89234315 0 0 Z " fill="#D45351" transform="translate(158,39)"/>
<path d="M0 0 C2.97 0.495 2.97 0.495 6 1 C6 3.31 6 5.62 6 8 C4 8 2 8 0 8 C0 5.36 0 2.72 0 0 Z " fill="#97363A" transform="translate(119,39)"/>
<path d="M0 0 C1.65 0 3.3 0 5 0 C4.979375 0.763125 4.95875 1.52625 4.9375 2.3125 C4.87057159 5.10185786 4.87057159 5.10185786 6 8 C4.02 8 2.04 8 0 8 C0 5.36 0 2.72 0 0 Z " fill="#91333C" transform="translate(111,39)"/>
<path d="M0 0 C2.0625 0.4375 2.0625 0.4375 4 1 C4.38133299 2.9914056 4.71325582 4.99279077 5 7 C4 8 4 8 1.4375 8.0625 C0.633125 8.041875 -0.17125 8.02125 -1 8 C-1.33 7.34 -1.66 6.68 -2 6 C-1.34 5.67 -0.68 5.34 0 5 C-0.2784375 4.0409375 -0.2784375 4.0409375 -0.5625 3.0625 C-0.7790625 2.0415625 -0.7790625 2.0415625 -1 1 C-0.67 0.67 -0.34 0.34 0 0 Z " fill="#852A33" transform="translate(104,39)"/>
<path d="M0 0 C0 0.66 0 1.32 0 2 C-1.65 2 -3.3 2 -5 2 C-4.67 2.66 -4.34 3.32 -4 4 C-1.97536745 4.65213292 -1.97536745 4.65213292 0 5 C0 5.66 0 6.32 0 7 C-2.375 7.125 -2.375 7.125 -5 7 C-5.66 6.34 -6.32 5.68 -7 5 C-6.75 2.4375 -6.75 2.4375 -6 0 C-3.50907189 -1.24546405 -2.58919267 -0.7767578 0 0 Z " fill="#C65051" transform="translate(147,40)"/>
<path d="M0 0 C0.99 0.99 1.98 1.98 3 3 C4.32 2.01 5.64 1.02 7 0 C6.125 5.75 6.125 5.75 5 8 C4.01 8 3.02 8 2 8 C0.74335022 5.09399739 0 3.20395416 0 0 Z " fill="#BE494B" transform="translate(127,39)"/>
<path d="M0 0 C1.4540625 0.0309375 1.4540625 0.0309375 2.9375 0.0625 C2.9375 0.7225 2.9375 1.3825 2.9375 2.0625 C2.2775 2.0625 1.6175 2.0625 0.9375 2.0625 C0.9375 4.0425 0.9375 6.0225 0.9375 8.0625 C-0.0525 7.7325 -1.0425 7.4025 -2.0625 7.0625 C-2.0625 5.4125 -2.0625 3.7625 -2.0625 2.0625 C-2.7225 1.7325 -3.3825 1.4025 -4.0625 1.0625 C-3.0625 0.0625 -3.0625 0.0625 0 0 Z " fill="#661D22" transform="translate(94.0625,38.9375)"/>
<path d="M0 0 C0.99 0 1.98 0 3 0 C3 1.32 3 2.64 3 4 C5.97 4 8.94 4 12 4 C12 4.33 12 4.66 12 5 C10.3603125 5.2165625 10.3603125 5.2165625 8.6875 5.4375 C5.06877013 5.88288104 5.06877013 5.88288104 2 7 C0 5 0 5 -0.125 2.375 C-0.08375 1.59125 -0.0425 0.8075 0 0 Z " fill="#0F1010" transform="translate(67,27)"/>
<path d="M0 0 C1.485 0.99 1.485 0.99 3 2 C3.1875 5.125 3.1875 5.125 3 8 C4.98 8 6.96 8 9 8 C9 8.33 9 8.66 9 9 C2.84765625 9.87890625 2.84765625 9.87890625 1 10 C0 9 0 9 -0.09765625 6.93359375 C-0.08605469 6.10988281 -0.07445312 5.28617188 -0.0625 4.4375 C-0.05347656 3.61121094 -0.04445312 2.78492188 -0.03515625 1.93359375 C-0.02355469 1.29550781 -0.01195312 0.65742188 0 0 Z " fill="#0C0B0C" transform="translate(142,23)"/>
<path d="M0 0 C0.33 0.66 0.66 1.32 1 2 C0.0625 4.625 0.0625 4.625 -1 7 C-2.32 6.67 -3.64 6.34 -5 6 C-4.67 5.01 -4.34 4.02 -4 3 C-4.99 2.34 -5.98 1.68 -7 1 C-3.535 0.505 -3.535 0.505 0 0 Z " fill="#CD1312" transform="translate(42,37)"/>
<path d="M0 0 C1.2065625 0.0309375 1.2065625 0.0309375 2.4375 0.0625 C1.4475 0.3925 0.4575 0.7225 -0.5625 1.0625 C-0.8925 4.3625 -1.2225 7.6625 -1.5625 11.0625 C-2.2225 11.0625 -2.8825 11.0625 -3.5625 11.0625 C-3.58938151 9.41675434 -3.60884123 7.77088587 -3.625 6.125 C-3.63660156 5.20847656 -3.64820312 4.29195312 -3.66015625 3.34765625 C-3.52086326 0.08820018 -3.27895972 0.07997463 0 0 Z " fill="#131315" transform="translate(128.5625,15.9375)"/>
<path d="M0 0 C0.66 0.33 1.32 0.66 2 1 C2 3.64 2 6.28 2 9 C1.01 9 0.02 9 -1 9 C-1.09765625 2.84765625 -1.09765625 2.84765625 -1 1 C-0.67 0.67 -0.34 0.34 0 0 Z " fill="#942A27" transform="translate(87,39)"/>
<path d="M0 0 C2.97 0.33 5.94 0.66 9 1 C9 1.66 9 2.32 9 3 C5.7 3 2.4 3 -1 3 C-0.67 2.01 -0.34 1.02 0 0 Z " fill="#DC0302" transform="translate(29,38)"/>
<path d="M0 0 C2.6875 -0.3125 2.6875 -0.3125 6 0 C8.875 2.5 8.875 2.5 11 5 C8.69 5 6.38 5 4 5 C4.66 4.67 5.32 4.34 6 4 C5.34 3.67 4.68 3.34 4 3 C4 2.34 4 1.68 4 1 C2.68 0.67 1.36 0.34 0 0 Z " fill="#871522" transform="translate(33,21)"/>
<path d="M0 0 C3.125 -0.1875 3.125 -0.1875 6 0 C3.38485683 2.12038635 0.80362384 4.13091744 -2 6 C-2 3 -2 3 0 0 Z " fill="#1E1C18" transform="translate(23,14)"/>
<path d="M0 0 C-0.33 0.99 -0.66 1.98 -1 3 C-3.64 3 -6.28 3 -9 3 C-9.33 2.34 -9.66 1.68 -10 1 C-2.25 0 -2.25 0 0 0 Z " fill="#1D1D1D" transform="translate(81,31)"/>
<path d="M0 0 C2.97 0.33 5.94 0.66 9 1 C9 1.33 9 1.66 9 2 C6.36 2 3.72 2 1 2 C1 2.66 1 3.32 1 4 C0.01 3.67 -0.98 3.34 -2 3 C-1.34 2.01 -0.68 1.02 0 0 Z " fill="#820910" transform="translate(28,21)"/>
<path d="M0 0 C1.98 0 3.96 0 6 0 C6.33 1.65 6.66 3.3 7 5 C6.01 5 5.02 5 4 5 C4 3.68 4 2.36 4 1 C2.68 0.67 1.36 0.34 0 0 Z " fill="#0E0E0E" transform="translate(133,16)"/>
<path d="M0 0 C1.65 0 3.3 0 5 0 C5.33 1.65 5.66 3.3 6 5 C5.01 5 4.02 5 3 5 C2.67 4.01 2.34 3.02 2 2 C1.34 1.34 0.68 0.68 0 0 Z " fill="#171818" transform="translate(76,16)"/>
<path d="M0 0 C0.66 0 1.32 0 2 0 C2 1.32 2 2.64 2 4 C-0.97 4 -3.94 4 -7 4 C-7 3.67 -7 3.34 -7 3 C-5.02 3 -3.04 3 -1 3 C-0.67 2.01 -0.34 1.02 0 0 Z " fill="#141516" transform="translate(180,29)"/>
<path d="M0 0 C1.04449911 3.13349732 0.93423645 3.98968256 0 7 C0.99 7.33 1.98 7.66 3 8 C1.35 8 -0.3 8 -2 8 C-2.33 7.01 -2.66 6.02 -3 5 C-1.5625 2.3125 -1.5625 2.3125 0 0 Z " fill="#861A21" transform="translate(21,26)"/>
<path d="M0 0 C2.64 0 5.28 0 8 0 C7.67 0.99 7.34 1.98 7 3 C5.02 3 3.04 3 1 3 C0.67 2.01 0.34 1.02 0 0 Z " fill="#0D0D0D" transform="translate(101,20)"/>
<path d="M0 0 C0.66 0 1.32 0 2 0 C2 2.64 2 5.28 2 8 C1.34 8 0.68 8 0 8 C0 5.36 0 2.72 0 0 Z " fill="#CD675E" transform="translate(136,39)"/>
</svg>
